<svg width="32" height="32" viewBox="0 0 32 32" fill="none" xmlns="http://www.w3.org/2000/svg">
<path d="M18.27 17.8442C18.9214 17.8442 19.4526 17.313 19.4526 16.6616C19.4526 16.0102 18.9214 15.479 18.27 15.479C17.6186 15.479 17.0874 16.0102 17.0874 16.6616C17.0874 17.313 17.6186 17.8442 18.27 17.8442Z" fill="#ED1E78"/>
<path d="M13.0586 22.3135C13.5647 22.3135 13.9756 21.9026 13.9756 21.3965C13.9756 20.8904 13.5647 20.4795 13.0586 20.4795C12.5525 20.4795 12.1416 20.8904 12.1416 21.3965C12.1416 21.9026 12.5525 22.3135 13.0586 22.3135Z" fill="#ED1E78"/>
<path d="M15.5691 8.11233C16.0752 8.11233 16.4861 7.70143 16.4861 7.19533C16.4861 6.68922 16.0752 6.27832 15.5691 6.27832C15.063 6.27832 14.6521 6.68922 14.6521 7.19533C14.6521 7.70143 15.063 8.11233 15.5691 8.11233Z" fill="#ED1E78"/>
<path d="M12.2268 12.8482C12.7329 12.8482 13.1438 12.4373 13.1438 11.9312C13.1438 11.4251 12.7329 11.0142 12.2268 11.0142C11.7207 11.0142 11.3098 11.4251 11.3098 11.9312C11.3098 12.4373 11.7207 12.8482 12.2268 12.8482Z" fill="#ED1E78"/>
<path d="M16 0L9.13999 6.86001H14.0106C14.166 6.14344 14.8024 5.60727 15.564 5.60727C16.441 5.60727 17.1575 6.32383 17.1575 7.20075C17.1575 8.07767 16.441 8.79424 15.564 8.79424C14.8024 8.79424 14.166 8.25806 14.0106 7.5415H8.46352L4.40464 11.6004H10.6683C10.8237 10.8838 11.4601 10.3476 12.2217 10.3476C13.0987 10.3476 13.8152 11.0642 13.8152 11.9411C13.8152 12.818 13.0987 13.5346 12.2217 13.5346C11.4601 13.5346 10.8237 12.9934 10.6683 12.2819H3.72815L0 16.01L0.230504 16.2405H16.2606C16.461 15.3185 17.2828 14.622 18.265 14.622C19.3974 14.622 20.3144 15.544 20.3144 16.6715C20.3144 17.7989 19.3924 18.721 18.265 18.721C17.2828 18.721 16.461 18.0294 16.2606 17.1024H1.10241L5.06107 21.0611H11.4951C11.6505 20.3445 12.2869 19.8083 13.0485 19.8083C13.9255 19.8083 14.642 20.5249 14.642 21.4018C14.642 22.2787 13.9255 22.9953 13.0485 22.9953C12.2869 22.9953 11.6505 22.4591 11.4951 21.7426H5.73755L15.995 32L31.99 16.005L16 0Z" fill="#ED1E78"/>
</svg>
