<svg width="24" height="24" viewBox="0 0 24 24" fill="none" xmlns="http://www.w3.org/2000/svg">
<path d="M12.5 3.5V2.5C12.5 2.22386 12.2761 2 12 2C11.7239 2 11.5 2.22386 11.5 2.5V3.5C11.5 3.77614 11.7239 4 12 4C12.2761 4 12.5 3.77614 12.5 3.5Z" fill="#282C33"/>
<path d="M17.1464 5.85355C16.9512 5.65829 16.9512 5.34172 17.1464 5.14645L18.1464 4.14645C18.3417 3.95119 18.6583 3.95119 18.8536 4.14645C19.0488 4.34172 19.0488 4.65829 18.8536 4.85355L17.8536 5.85355C17.6583 6.04882 17.3417 6.04882 17.1464 5.85355Z" fill="#282C33"/>
<path d="M5.85358 4.14645C5.65832 3.95118 5.34174 3.95118 5.14648 4.14645C4.95121 4.34171 4.95121 4.65829 5.14648 4.85355L6.14648 5.85355C6.34174 6.04881 6.65832 6.04881 6.85358 5.85355C7.04884 5.65829 7.04884 5.34171 6.85358 5.14645L5.85358 4.14645Z" fill="#282C33"/>
<path fill-rule="evenodd" clip-rule="evenodd" d="M15 15.4999C15 15.1854 15.1524 14.8939 15.3839 14.681C16.3774 13.7672 17 12.4563 17 11C17 8.23857 14.7614 6 12 6C9.23861 6 7.00003 8.23857 7.00003 11C7.00003 12.4563 7.62262 13.7672 8.61615 14.681C8.84763 14.8939 9.00003 15.1854 9.00003 15.4999V18C9.00003 19.6569 10.3431 21 12 21C13.6569 21 15 19.6569 15 18V15.4999ZM16 11C16 12.165 15.5032 13.2126 14.7069 13.945C14.3101 14.31 14 14.855 14 15.4999V17H10V15.4999C10 14.855 9.68995 14.31 9.29312 13.945C8.49681 13.2126 8.00003 12.165 8.00003 11C8.00003 8.79086 9.79089 7 12 7C14.2091 7 16 8.79086 16 11ZM10 18C10 19.1046 10.8954 20 12 20C13.1046 20 14 19.1046 14 18H10Z" fill="#282C33"/>
<path d="M3.50003 10.5C3.22389 10.5 3.00003 10.7239 3.00003 11C3.00003 11.2761 3.22389 11.5 3.50003 11.5H4.50003C4.77617 11.5 5.00003 11.2761 5.00003 11C5.00003 10.7239 4.77617 10.5 4.50003 10.5H3.50003Z" fill="#282C33"/>
<path d="M19.5 10.5C19.2239 10.5 19 10.7239 19 11C19 11.2761 19.2239 11.5 19.5 11.5H20.5C20.7761 11.5 21 11.2761 21 11C21 10.7239 20.7761 10.5 20.5 10.5H19.5Z" fill="#282C33"/>
<path d="M16 11C16 12.165 15.5032 13.2126 14.7069 13.945C14.3101 14.31 14 14.855 14 15.4999V17H10V15.4999C10 14.855 9.68995 14.31 9.29312 13.945C8.49681 13.2126 8.00003 12.165 8.00003 11C8.00003 8.79086 9.79089 7 12 7C14.2091 7 16 8.79086 16 11Z" fill="#FFE342"/>
<path d="M10 18C10 19.1046 10.8954 20 12 20C13.1046 20 14 19.1046 14 18H10Z" fill="#E5A603"/>
</svg>
