<svg width="25" height="24" viewBox="0 0 25 24" fill="none" xmlns="http://www.w3.org/2000/svg">
<path d="M10.1428 17C14.0088 17 17.1428 13.866 17.1428 10C17.1428 6.13401 14.0088 3 10.1428 3C6.27677 3 3.14276 6.13401 3.14276 10C3.14276 13.866 6.27677 17 10.1428 17Z" fill="#FFD6F5"/>
<path d="M20.6428 21.5L14.6428 16L16.1428 14.5L21.6428 20.5L20.6428 21.5Z" fill="#E547BE"/>
<path d="M6.14276 13V14C6.14276 14.5523 6.59048 15 7.14276 15H13.1428C13.6951 15 14.1428 14.5523 14.1428 14V13C14.1428 11.8954 13.2474 11 12.1428 11H8.14276C7.03819 11 6.14276 11.8954 6.14276 13Z" fill="#E547BE"/>
<path d="M13.1428 7C13.1428 8.65685 11.7997 10 10.1428 10C8.48591 10 7.14276 8.65685 7.14276 7C7.14276 5.34315 8.48591 4 10.1428 4C11.7997 4 13.1428 5.34315 13.1428 7Z" fill="#E547BE"/>
<path fill-rule="evenodd" clip-rule="evenodd" d="M10.1428 9C11.2474 9 12.1428 8.10457 12.1428 7C12.1428 5.89543 11.2474 5 10.1428 5C9.03819 5 8.14276 5.89543 8.14276 7C8.14276 8.10457 9.03819 9 10.1428 9ZM10.1428 10C11.7997 10 13.1428 8.65685 13.1428 7C13.1428 5.34315 11.7997 4 10.1428 4C8.48591 4 7.14276 5.34315 7.14276 7C7.14276 8.65685 8.48591 10 10.1428 10Z" fill="#282C33"/>
<path fill-rule="evenodd" clip-rule="evenodd" d="M17.1614 10.0099C17.1614 13.8434 13.9862 17.0186 10.1527 17.0186C6.32999 17.0186 3.144 13.7869 3.144 9.94246C3.144 6.10893 6.25169 3.00124 10.0852 3.00124C13.9297 3.00124 17.1614 6.18723 17.1614 10.0099ZM14.7257 16.5654C13.4246 17.4802 11.8455 18.0198 10.1527 18.0198C5.76617 18.0198 2.14276 14.329 2.14276 9.94246C2.14276 5.55596 5.69872 2 10.0852 2C14.4718 2 18.1626 5.62341 18.1626 10.0099C18.1626 11.7027 17.623 13.2818 16.7082 14.5829C16.7536 14.6152 16.7969 14.6516 16.8376 14.6923L21.8495 19.7043C22.2406 20.0953 22.2406 20.7292 21.8495 21.1202L21.263 21.7067C20.872 22.0978 20.2381 22.0978 19.8471 21.7067L14.8351 16.6948C14.7944 16.6541 14.758 16.6108 14.7257 16.5654ZM15.5431 15.9868L16.1296 15.4003L21.1416 20.4123L20.5551 20.9988L15.5431 15.9868Z" fill="#282C33"/>
<path fill-rule="evenodd" clip-rule="evenodd" d="M7.14276 12.5V14H13.1428V12.5C13.1428 11.9477 12.6951 11.5 12.1428 11.5H8.14276C7.59048 11.5 7.14276 11.9477 7.14276 12.5ZM6.14276 14V12.5C6.14276 11.3954 7.03819 10.5 8.14276 10.5H12.1428C13.2474 10.5 14.1428 11.3954 14.1428 12.5V14C14.1428 14.5523 13.6951 15 13.1428 15H7.14276C6.59048 15 6.14276 14.5523 6.14276 14Z" fill="#282C33"/>
</svg>
