<svg width="25" height="24" viewBox="0 0 25 24" fill="none" xmlns="http://www.w3.org/2000/svg">
<path d="M12.5714 19C16.4374 19 19.5714 15.866 19.5714 12C19.5714 8.13401 16.4374 5 12.5714 5C8.70544 5 5.57143 8.13401 5.57143 12C5.57143 15.866 8.70544 19 12.5714 19Z" fill="#6DB1FF"/>
<path fill-rule="evenodd" clip-rule="evenodd" d="M12.5714 18C15.8851 18 18.5714 15.3137 18.5714 12C18.5714 8.68629 15.8851 6 12.5714 6C9.25772 6 6.57143 8.68629 6.57143 12C6.57143 15.3137 9.25772 18 12.5714 18ZM12.5714 19C16.4374 19 19.5714 15.866 19.5714 12C19.5714 8.13401 16.4374 5 12.5714 5C8.70544 5 5.57143 8.13401 5.57143 12C5.57143 15.866 8.70544 19 12.5714 19Z" fill="#282C33"/>
<path fill-rule="evenodd" clip-rule="evenodd" d="M2.57143 18.5C2.57143 18.2239 2.79529 18 3.07143 18H22.0714C22.3475 18 22.5714 18.2239 22.5714 18.5C22.5714 18.7761 22.3475 19 22.0714 19H3.07143C2.79529 19 2.57143 18.7761 2.57143 18.5Z" fill="#282C33"/>
<path fill-rule="evenodd" clip-rule="evenodd" d="M13.425 3.14645C13.6202 3.34171 13.6202 3.65829 13.425 3.85355L11.7785 5.5L13.425 7.14645C13.6202 7.34171 13.6202 7.65829 13.425 7.85355C13.2297 8.04882 12.9131 8.04882 12.7178 7.85355L10.7178 5.85355C10.5226 5.65829 10.5226 5.34171 10.7178 5.14645L12.7178 3.14645C12.9131 2.95118 13.2297 2.95118 13.425 3.14645Z" fill="#282C33"/>
<path fill-rule="evenodd" clip-rule="evenodd" d="M19.7178 16.1464C19.5226 16.3417 19.5226 16.6583 19.7178 16.8536L21.3643 18.5L19.7178 20.1464C19.5226 20.3417 19.5226 20.6583 19.7178 20.8536C19.9131 21.0488 20.2297 21.0488 20.425 20.8536L22.425 18.8536C22.6202 18.6583 22.6202 18.3417 22.425 18.1464L20.425 16.1464C20.2297 15.9512 19.9131 15.9512 19.7178 16.1464Z" fill="#282C33"/>
</svg>
