<svg width="26" height="24" viewBox="0 0 26 24" fill="none" xmlns="http://www.w3.org/2000/svg">
<path d="M9.78574 11L6.28574 13L9.78574 15L11.7857 18.5L13.7857 15L17.2857 13L13.7857 11L11.7857 7L9.78574 11Z" fill="#7C78FF"/>
<path d="M17.3766 5.73913L15.7857 6.6087L17.3766 7.47826L18.2857 9L19.1948 7.47826L20.7857 6.6087L19.1948 5.73913L18.2857 4L17.3766 5.73913Z" fill="#DEDEFF"/>
<path fill-rule="evenodd" clip-rule="evenodd" d="M5.62671 13.4601C5.45532 13.3966 5.28023 13.336 5.10138 13.2781C5.04927 13.2612 4.99683 13.2446 4.94408 13.2282C4.73295 13.1626 4.73295 12.8374 4.94408 12.7718C4.99683 12.7554 5.04927 12.7388 5.10138 12.7219C5.28023 12.664 5.45532 12.6034 5.62671 12.5399C5.69176 12.5158 5.75628 12.4913 5.82027 12.4664C8.47634 11.4324 10.2181 9.69062 11.2521 7.03454C11.277 6.97055 11.3015 6.90603 11.3256 6.84098C11.3891 6.66959 11.4497 6.4945 11.5076 6.31565C11.5245 6.26354 11.5411 6.2111 11.5575 6.15835C11.6231 5.94722 11.9483 5.94722 12.0139 6.15835C12.0303 6.2111 12.0469 6.26354 12.0638 6.31565C12.1216 6.4945 12.1823 6.66959 12.2458 6.84098C12.2699 6.90603 12.2944 6.97055 12.3193 7.03454C13.3533 9.69062 15.0951 11.4324 17.7511 12.4664C17.8151 12.4913 17.8797 12.5158 17.9447 12.5399C18.1161 12.6034 18.2912 12.664 18.47 12.7219C18.5221 12.7388 18.5746 12.7554 18.6273 12.7718C18.8385 12.8374 18.8385 13.1626 18.6273 13.2282C18.5746 13.2446 18.5221 13.2612 18.47 13.2781C18.2912 13.336 18.1161 13.3966 17.9447 13.4601C17.8797 13.4842 17.8151 13.5087 17.7511 13.5336C15.0951 14.5676 13.3533 16.3094 12.3193 18.9655C12.2944 19.0295 12.2699 19.094 12.2458 19.159C12.1823 19.3304 12.1216 19.5055 12.0638 19.6843C12.0469 19.7365 12.0303 19.7889 12.0139 19.8417C11.9483 20.0528 11.6231 20.0528 11.5575 19.8417C11.5411 19.7889 11.5245 19.7365 11.5076 19.6843C11.4497 19.5055 11.3891 19.3304 11.3256 19.159C11.3015 19.094 11.277 19.0295 11.2521 18.9655C10.2181 16.3094 8.47634 14.5676 5.82027 13.5336C5.75628 13.5087 5.69176 13.4842 5.62671 13.4601ZM7.09812 13C8.14648 13.5083 9.064 14.1465 9.85159 14.9341C10.6391 15.7217 11.2774 16.6393 11.7857 17.6876C12.294 16.6393 12.9322 15.7217 13.7198 14.9341C14.5074 14.1465 15.4249 13.5083 16.4733 13C15.4249 12.4917 14.5074 11.8535 13.7198 11.0659C12.9322 10.2783 12.294 9.36075 11.7857 8.31239C11.2774 9.36075 10.6391 10.2783 9.85159 11.0659C9.064 11.8535 8.14648 12.4917 7.09812 13ZM15.6734 6.9258C15.4454 6.81815 15.2023 6.72278 14.9435 6.63905C14.9175 6.63061 14.8912 6.6223 14.8649 6.61411C14.7593 6.58131 14.7593 6.41869 14.8649 6.38589C14.8912 6.3777 14.9175 6.36939 14.9435 6.36095C15.2023 6.27722 15.4454 6.18185 15.6734 6.0742C15.7613 6.03271 15.8469 5.9894 15.9303 5.94423C16.7152 5.51921 17.3049 4.92951 17.7299 4.14462C17.7751 4.0612 17.8184 3.97557 17.8599 3.88771C17.9675 3.65972 18.0629 3.41664 18.1466 3.15783C18.1551 3.13177 18.1634 3.10555 18.1716 3.07917C18.2044 2.97361 18.367 2.97361 18.3998 3.07917C18.408 3.10555 18.4163 3.13177 18.4247 3.15783C18.5085 3.41664 18.6038 3.65972 18.7115 3.88771C18.753 3.97557 18.7963 4.0612 18.8415 4.14462C19.2665 4.92951 19.8562 5.51921 20.6411 5.94423C20.7245 5.9894 20.8101 6.03271 20.898 6.0742C21.126 6.18184 21.3691 6.27722 21.6279 6.36095C21.6539 6.36939 21.6801 6.3777 21.7065 6.38589C21.8121 6.41869 21.8121 6.58131 21.7065 6.61411C21.6801 6.6223 21.6539 6.63061 21.6279 6.63905C21.3691 6.72278 21.126 6.81816 20.898 6.9258C20.8101 6.96729 20.7245 7.0106 20.6411 7.05577C19.8562 7.48079 19.2665 8.07049 18.8415 8.85538C18.7963 8.9388 18.753 9.02443 18.7115 9.11229C18.6038 9.34028 18.5085 9.58336 18.4247 9.84217C18.4163 9.86823 18.408 9.89445 18.3998 9.92083C18.367 10.0264 18.2044 10.0264 18.1716 9.92083C18.1634 9.89445 18.1551 9.86823 18.1466 9.84217C18.0629 9.58336 17.9675 9.34028 17.8599 9.11229C17.8184 9.02443 17.7751 8.9388 17.7299 8.85538C17.3049 8.07049 16.7152 7.48079 15.9303 7.05577C15.8469 7.0106 15.7613 6.96729 15.6734 6.9258ZM16.9349 6.5C17.1986 6.68207 17.4446 6.88595 17.6722 7.11352C17.8997 7.34109 18.1036 7.58709 18.2857 7.85078C18.4678 7.58709 18.6716 7.34109 18.8992 7.11352C19.1268 6.88595 19.3728 6.68206 19.6365 6.5C19.3728 6.31793 19.1268 6.11405 18.8992 5.88648C18.6716 5.65891 18.4678 5.41291 18.2857 5.14922C18.1036 5.41291 17.8997 5.65891 17.6722 5.88648C17.4446 6.11405 17.1986 6.31794 16.9349 6.5Z" fill="#282C33"/>
</svg>
