<svg width="25" height="24" viewBox="0 0 25 24" fill="none" xmlns="http://www.w3.org/2000/svg">
<path d="M5.71432 5.5C5.43818 5.5 5.21432 5.27614 5.21432 5V3C5.21432 2.72386 5.43818 2.5 5.71432 2.5H19.7143C19.9904 2.5 20.2143 2.72386 20.2143 3V5C20.2143 5.27614 19.9904 5.5 19.7143 5.5H5.71432ZM9.71432 21.5C9.43818 21.5 9.21432 21.2761 9.21432 21V17C9.21432 16.7239 9.43818 16.5 9.71432 16.5H15.7143C15.9904 16.5 16.2143 16.7239 16.2143 17V21C16.2143 21.2761 15.9904 21.5 15.7143 21.5H9.71432Z" fill="#109E1C" stroke="#282C33" stroke-linejoin="round"/>
<path d="M15.7143 14C15.162 14 14.7143 13.5523 14.7143 13V9C14.7143 8.44772 15.162 8 15.7143 8H21.7143C22.2666 8 22.7143 8.44772 22.7143 9V13C22.7143 13.5523 22.2666 14 21.7143 14H15.7143Z" fill="#C3F7C8"/>
<path d="M3.71432 14C3.16204 14 2.71432 13.5523 2.71432 13V9C2.71432 8.44772 3.16204 8 3.71432 8H9.71432C10.2666 8 10.7143 8.44772 10.7143 9V13C10.7143 13.5523 10.2666 14 9.71432 14H3.71432Z" fill="#C3F7C8"/>
<path fill-rule="evenodd" clip-rule="evenodd" d="M5.71432 3V5H19.7143V3H5.71432ZM4.71432 5C4.71432 5.55228 5.16204 6 5.71432 6H19.7143C20.2666 6 20.7143 5.55228 20.7143 5V3C20.7143 2.44772 20.2666 2 19.7143 2H5.71432C5.16204 2 4.71432 2.44772 4.71432 3V5Z" fill="#282C33"/>
<path fill-rule="evenodd" clip-rule="evenodd" d="M9.71432 17V21H15.7143V17H9.71432ZM8.71432 21C8.71432 21.5523 9.16204 22 9.71432 22H15.7143C16.2666 22 16.7143 21.5523 16.7143 21V17C16.7143 16.4477 16.2666 16 15.7143 16H9.71432C9.16204 16 8.71432 16.4477 8.71432 17V21Z" fill="#282C33"/>
<path fill-rule="evenodd" clip-rule="evenodd" d="M15.7143 9V13H21.7143V9H15.7143ZM14.7143 13V9C14.7143 8.44772 15.162 8 15.7143 8H21.7143C22.2666 8 22.7143 8.44771 22.7143 9V13C22.7143 13.5523 22.2666 14 21.7143 14H15.7143C15.162 14 14.7143 13.5523 14.7143 13Z" fill="#282C33"/>
<path fill-rule="evenodd" clip-rule="evenodd" d="M3.71432 9V13H9.71432V9H3.71432ZM2.71432 13C2.71432 13.5523 3.16204 14 3.71432 14H9.71432C10.2666 14 10.7143 13.5523 10.7143 13V9C10.7143 8.44772 10.2666 8 9.71432 8H3.71432C3.16204 8 2.71432 8.44772 2.71432 9V13Z" fill="#282C33"/>
<path fill-rule="evenodd" clip-rule="evenodd" d="M19.7143 13.5V19.5C19.7143 19.7761 19.4904 20 19.2143 20H16.2143V19H18.7143V13.5H19.7143Z" fill="#282C33"/>
<path fill-rule="evenodd" clip-rule="evenodd" d="M5.71432 13.5V19.5C5.71432 19.7761 5.93818 20 6.21432 20H9.21432V19H6.71432V13.5H5.71432Z" fill="#282C33"/>
<path fill-rule="evenodd" clip-rule="evenodd" d="M15.2143 12H10.2143V11H15.2143V12Z" fill="#282C33"/>
<path fill-rule="evenodd" clip-rule="evenodd" d="M17.7143 8.5V5.5H18.7143V8.5H17.7143Z" fill="#282C33"/>
<path fill-rule="evenodd" clip-rule="evenodd" d="M6.71432 8.5V5.5H7.71432V8.5H6.71432Z" fill="#282C33"/>
</svg>
