<svg width="25" height="24" viewBox="0 0 25 24" fill="none" xmlns="http://www.w3.org/2000/svg">
<path fill-rule="evenodd" clip-rule="evenodd" d="M10.2857 4H5.28573C5.02051 4 4.76616 4.10536 4.57862 4.29289C4.39109 4.48043 4.28573 4.73478 4.28573 5V9C4.28573 9.26522 4.39109 9.51957 4.57862 9.70711C4.76616 9.89464 5.02051 10 5.28573 10H10.2857C10.5509 10 10.8053 9.89464 10.9928 9.70711C11.1804 9.51957 11.2857 9.26522 11.2857 9V5C11.2857 4.73478 11.1804 4.48043 10.9928 4.29289C10.8053 4.10536 10.5509 4 10.2857 4ZM5.28573 3C4.7553 3 4.24659 3.21071 3.87151 3.58579C3.49644 3.96086 3.28573 4.46957 3.28573 5V9C3.28573 10.1 4.18573 11 5.28573 11H7.28573V17H12.3157C12.4435 18.143 13.0041 19.1937 13.8824 19.9363C14.7606 20.6789 15.8899 21.057 17.0383 20.993C18.1866 20.929 19.2669 20.4278 20.0572 19.5922C20.8475 18.7566 21.2879 17.6501 21.2879 16.5C21.2879 15.3499 20.8475 14.2434 20.0572 13.4078C19.2669 12.5722 18.1866 12.071 17.0383 12.007C15.8899 11.943 14.7606 12.3211 13.8824 13.0637C13.0041 13.8063 12.4435 14.857 12.3157 16H8.28573V11H10.2857C10.8162 11 11.3249 10.7893 11.6999 10.4142C12.075 10.0391 12.2857 9.53043 12.2857 9V5C12.2857 4.46957 12.075 3.96086 11.6999 3.58579C11.3249 3.21071 10.8162 3 10.2857 3H5.28573ZM13.2857 16.5C13.2857 16.9596 13.3763 17.4148 13.5521 17.8394C13.728 18.264 13.9858 18.6499 14.3109 18.9749C14.6359 19.2999 15.0217 19.5577 15.4463 19.7336C15.871 19.9095 16.3261 20 16.7857 20C17.2454 20 17.7005 19.9095 18.1251 19.7336C18.5498 19.5577 18.9356 19.2999 19.2606 18.9749C19.5856 18.6499 19.8434 18.264 20.0193 17.8394C20.1952 17.4148 20.2857 16.9596 20.2857 16.5C20.2857 15.5717 19.917 14.6815 19.2606 14.0251C18.6042 13.3687 17.714 13 16.7857 13C15.8575 13 14.9672 13.3687 14.3109 14.0251C13.6545 14.6815 13.2857 15.5717 13.2857 16.5Z" fill="#282C33"/>
<path d="M16.7857 20C17.2454 20 17.7005 19.9095 18.1251 19.7336C18.5498 19.5577 18.9356 19.2999 19.2606 18.9749C19.5856 18.6499 19.8434 18.264 20.0193 17.8394C20.1952 17.4148 20.2857 16.9596 20.2857 16.5C20.2857 16.0404 20.1952 15.5852 20.0193 15.1606C19.8434 14.736 19.5856 14.3501 19.2606 14.0251C18.9356 13.7001 18.5498 13.4423 18.1251 13.2664C17.7005 13.0905 17.2454 13 16.7857 13C15.8575 13 14.9672 13.3687 14.3109 14.0251C13.6545 14.6815 13.2857 15.5717 13.2857 16.5C13.2857 17.4283 13.6545 18.3185 14.3109 18.9749C14.9672 19.6313 15.8575 20 16.7857 20Z" fill="#EB5A00"/>
<path d="M10.2857 4H5.28573C4.73344 4 4.28573 4.44772 4.28573 5V9C4.28573 9.55228 4.73344 10 5.28573 10H10.2857C10.838 10 11.2857 9.55228 11.2857 9V5C11.2857 4.44772 10.838 4 10.2857 4Z" fill="#FFDDA6"/>
</svg>
