<svg width="25" height="24" viewBox="0 0 25 24" fill="none" xmlns="http://www.w3.org/2000/svg">
<path d="M3.42853 5.1C3.42853 3.93 4.36853 3 5.52853 3H19.3285C20.4885 3 21.4285 3.94 21.4285 5.1V18.9C21.4285 19.1758 21.3742 19.4489 21.2687 19.7036C21.1631 19.9584 21.0085 20.1899 20.8135 20.3849C20.6184 20.5799 20.3869 20.7346 20.1322 20.8401C19.8774 20.9457 19.6043 21 19.3285 21H5.52853C5.25275 21 4.97968 20.9457 4.72489 20.8401C4.47011 20.7346 4.23861 20.5799 4.0436 20.3849C3.8486 20.1899 3.69392 19.9584 3.58838 19.7036C3.48285 19.4489 3.42853 19.1758 3.42853 18.9V5.1Z" fill="#FFD9D9"/>
<path d="M3.42853 5.1C3.42853 3.93 4.36853 3 5.52853 3H19.3285C20.4885 3 21.4285 3.94 21.4285 5.1V8H3.42853V5.1Z" fill="#FF3D3D"/>
<path fill-rule="evenodd" clip-rule="evenodd" d="M19.3285 4H5.52853C4.90853 4 4.42853 4.49 4.42853 5.1V18.9C4.42853 19.51 4.91853 20 5.52853 20H19.3285C19.9385 20 20.4285 19.51 20.4285 18.9V5.1C20.4285 4.49 19.9385 4 19.3285 4ZM5.52853 3C4.97157 3 4.43743 3.22125 4.0436 3.61508C3.64978 4.0089 3.42853 4.54305 3.42853 5.1V18.9C3.42853 20.06 4.36853 21 5.52853 21H19.3285C19.6043 21 19.8774 20.9457 20.1322 20.8401C20.3869 20.7346 20.6184 20.5799 20.8135 20.3849C21.0085 20.1899 21.1631 19.9584 21.2687 19.7036C21.3742 19.4489 21.4285 19.1758 21.4285 18.9V5.1C21.4285 4.82422 21.3742 4.55115 21.2687 4.29636C21.1631 4.04158 21.0085 3.81008 20.8135 3.61508C20.6184 3.42007 20.3869 3.26539 20.1322 3.15985C19.8774 3.05432 19.6043 3 19.3285 3H5.52853Z" fill="#282C33"/>
<path fill-rule="evenodd" clip-rule="evenodd" d="M19.3285 4H5.52853C4.90853 4 4.42853 4.49 4.42853 5.1V7H20.4285V5.1C20.4285 4.49 19.9385 4 19.3285 4ZM5.52853 3C4.97157 3 4.43743 3.22125 4.0436 3.61508C3.64978 4.0089 3.42853 4.54305 3.42853 5.1V8H21.4285V5.1C21.4285 4.82422 21.3742 4.55115 21.2687 4.29636C21.1631 4.04158 21.0085 3.81008 20.8135 3.61508C20.6184 3.42007 20.3869 3.26539 20.1322 3.15985C19.8774 3.05432 19.6043 3 19.3285 3H5.52853ZM17.5285 9.64C17.7285 9.83 17.7285 10.14 17.5385 10.34L10.8885 17.31C10.8419 17.3584 10.786 17.3969 10.7241 17.4232C10.6623 17.4495 10.5957 17.463 10.5285 17.463C10.4613 17.463 10.3948 17.4495 10.3329 17.4232C10.2711 17.3969 10.2152 17.3584 10.1685 17.31L7.06853 14.06C7.02257 14.0127 6.98636 13.9569 6.96199 13.8956C6.93762 13.8343 6.92555 13.7689 6.92648 13.7029C6.92836 13.5698 6.98305 13.4428 7.07853 13.35C7.17401 13.2572 7.30245 13.2061 7.4356 13.208C7.50153 13.2089 7.56663 13.2228 7.62719 13.2489C7.68774 13.275 7.74257 13.3127 7.78853 13.36L10.5285 16.24L16.8185 9.65C17.0085 9.45 17.3185 9.45 17.5185 9.64H17.5285Z" fill="#282C33"/>
</svg>
