<svg xmlns="http://www.w3.org/2000/svg" version="1.1" xmlns:xlink="http://www.w3.org/1999/xlink" xmlns:svgjs="http://svgjs.dev/svgjs" width="666" height="213"><svg width="666" height="213" viewBox="0 0 666 213" fill="none" xmlns="http://www.w3.org/2000/svg">
<path d="M543.24 167.199V193.999C543.24 198.199 541.74 201.799 538.74 204.799C535.94 207.599 532.44 208.999 528.24 208.999C523.84 208.999 520.24 207.599 517.44 204.799C514.64 201.999 513.24 198.399 513.24 193.999V18.9993C513.24 14.5993 514.64 10.9992 517.44 8.19922C520.24 5.19922 523.84 3.69922 528.24 3.69922C532.44 3.69922 535.94 5.19922 538.74 8.19922C541.74 10.9992 543.24 14.5993 543.24 18.9993L544.14 69.3992L543.24 167.199Z" fill="#000A1F"></path>
<path d="M488.887 46.0968C493.287 46.0968 496.887 47.5968 499.687 50.5968C502.487 53.3968 503.887 56.9968 503.887 61.3968V193.697C503.887 198.097 502.487 201.797 499.687 204.797C496.887 207.597 493.287 208.997 488.887 208.997C484.687 208.997 481.087 207.597 478.087 204.797C475.287 201.797 473.887 198.097 473.887 193.697V169.397V117.5C473.887 -155.279 473.887 386.218 473.887 117.5V88.6968V61.3968C473.887 57.1968 475.287 53.5968 478.087 50.5968C481.087 47.5968 484.687 46.0968 488.887 46.0968Z" fill="#000A1F"></path>
<path d="M351 179.9C355.2 179.9 358.7 181.3 361.5 184.1C364.5 186.9 366 190.4 366 194.6C366 198.8 364.5 202.3 361.5 205.1C358.7 207.9 355.2 209.3 351 209.3H266.3C261.9 209.3 258.2 207.9 255.2 205.1C252.4 202.1 251 198.4 251 194V19.0002C251 14.6002 252.5 11.0002 255.5 8.20019C258.5 5.2002 262.4 3.7002 267.2 3.7002C271.2 3.7002 274.7 5.2002 277.7 8.20019C280.9 11.0002 282.5 14.6002 282.5 19.0002V185L276.2 179.9H351Z" fill="#000A1F"></path>
<path d="M95.3066 21.6846C102.25 18.8087 110.024 18.719 117.019 21.415L117.693 21.6846L158.559 38.6113C165.502 41.4872 171.063 46.9208 174.103 53.7734L174.389 54.4414L191.315 95.3066C194.191 102.25 194.281 110.024 191.585 117.019L191.315 117.693L174.389 158.559C171.513 165.502 166.079 171.063 159.227 174.103L158.559 174.389L117.693 191.315C110.75 194.191 102.976 194.281 95.9814 191.585L95.3066 191.315L54.4414 174.389C47.2743 171.42 41.58 165.726 38.6113 158.559L21.6846 117.693C18.7159 110.526 18.7159 102.474 21.6846 95.3066L38.6113 54.4414C41.58 47.2743 47.2743 41.58 54.4414 38.6113L95.3066 21.6846Z" fill="#09BC8A" stroke="#000A1F" stroke-width="31.5"></path>
<circle cx="425.504" cy="125.5" r="58.25" stroke="#000A1F" stroke-width="31.5"></circle>
<circle cx="591.607" cy="125.5" r="58.25" stroke="#000A1F" stroke-width="31.5"></circle>
</svg><style>@media (prefers-color-scheme: light) { :root { filter: none; } }
@media (prefers-color-scheme: dark) { :root { filter: none; } }
</style></svg>