<svg width="20" height="20" viewBox="0 0 20 20" fill="none" xmlns="http://www.w3.org/2000/svg">
<path d="M14.1663 7.5V12.5H5.83301V7.5H14.1663ZM15.833 2.5H14.1663V5H15.833V2.5ZM5.83301 2.5H4.16634V5H5.83301V2.5ZM19.1663 5.83333H16.6663V7.5H19.1663V5.83333ZM15.833 5.83333H4.16634V14.1667H15.833V5.83333ZM3.33301 5.83333H0.833008V7.5H3.33301V5.83333ZM19.1663 12.5H16.6663V14.1667H19.1663V12.5ZM3.33301 12.5H0.833008V14.1667H3.33301V12.5ZM15.833 15H14.1663V17.5H15.833V15ZM5.83301 15H4.16634V17.5H5.83301V15Z" fill="#344054"/>
</svg>
