<svg width="18" height="20" viewBox="0 0 18 20" fill="none" xmlns="http://www.w3.org/2000/svg">
<path d="M1.5 8.33366C1.5 5.19116 1.5 3.61949 2.47667 2.64366C3.45333 1.66783 5.02417 1.66699 8.16667 1.66699H9.83333C12.9758 1.66699 14.5475 1.66699 15.5233 2.64366C16.4992 3.62033 16.5 5.19116 16.5 8.33366V11.667C16.5 14.8095 16.5 16.3812 15.5233 17.357C14.5467 18.3328 12.9758 18.3337 9.83333 18.3337H8.16667C5.02417 18.3337 3.4525 18.3337 2.47667 17.357C1.50083 16.3803 1.5 14.8095 1.5 11.667V8.33366Z" stroke="#344054" stroke-width="1.5"/>
<path d="M5.66699 8.33398H12.3337M5.66699 11.6673H9.83366" stroke="#344054" stroke-width="1.5" stroke-linecap="round"/>
</svg>
