<svg width="14" height="14" viewBox="0 0 14 14" fill="none" xmlns="http://www.w3.org/2000/svg">
<path d="M1.67967 13.6663C1.29579 13.6663 0.975508 13.538 0.718841 13.2813C0.462174 13.0247 0.333563 12.7041 0.333008 12.3197V1.67967C0.333008 1.29579 0.461619 0.975508 0.718841 0.718841C0.976063 0.462174 1.29634 0.333563 1.67967 0.333008H12.3205C12.7038 0.333008 13.0241 0.461619 13.2813 0.718841C13.5386 0.976063 13.6669 1.29634 13.6663 1.67967V12.3205C13.6663 12.7038 13.538 13.0241 13.2813 13.2813C13.0247 13.5386 12.7041 13.6669 12.3197 13.6663H1.67967ZM6.58301 9.00301H1.16634V12.3197C1.16634 12.4697 1.2144 12.5927 1.31051 12.6888C1.40662 12.785 1.52967 12.833 1.67967 12.833H6.58301V9.00301ZM7.41634 9.00301V12.833H12.3205C12.47 12.833 12.5927 12.785 12.6888 12.6888C12.785 12.5927 12.833 12.47 12.833 12.3205V9.00301H7.41634ZM6.58301 8.16967V4.30717H1.16634V8.16967H6.58301ZM7.41634 8.16967H12.833V4.30717H7.41634V8.16967ZM1.16634 3.47384H12.833V1.67884C12.833 1.5294 12.785 1.40662 12.6888 1.31051C12.5927 1.2144 12.47 1.16634 12.3205 1.16634H1.67884C1.5294 1.16634 1.40662 1.2144 1.31051 1.31051C1.2144 1.40662 1.16634 1.52967 1.16634 1.67967V3.47384Z" fill="#344054"/>
</svg>
